<?xml version="1.0" standalone="no"?>
<!DOCTYPE svg PUBLIC "-//W3C//DTD SVG 20010904//EN"
 "http://www.w3.org/TR/2001/REC-SVG-20010904/DTD/svg10.dtd">
<svg version="1.0" xmlns="http://www.w3.org/2000/svg"
 width="1024.000000pt" height="1024.000000pt" viewBox="0 0 1024.000000 1024.000000"
 preserveAspectRatio="xMidYMid meet">
<metadata>
Created by potrace 1.16, written by Peter Selinger 2001-2019
</metadata>
<g transform="translate(0.000000,1024.000000) scale(0.100000,-0.100000)"
fill="#000000" stroke="none">
<path d="M0 5120 l0 -5120 5120 0 5120 0 0 5120 0 5120 -5120 0 -5120 0 0
-5120z m5310 5010 c174 -10 348 -25 465 -41 39 -5 90 -12 115 -15 25 -3 95
-16 155 -30 61 -14 135 -29 166 -35 31 -5 97 -23 147 -39 50 -17 100 -30 111
-30 11 0 23 -4 26 -10 3 -5 15 -10 25 -10 37 0 312 -100 540 -197 311 -132
864 -465 1068 -644 21 -19 54 -47 73 -63 19 -16 61 -52 94 -80 192 -165 473
-446 635 -636 68 -80 126 -147 129 -150 3 -3 20 -23 37 -45 29 -37 47 -64 141
-197 20 -29 39 -55 42 -58 9 -7 69 -101 128 -200 28 -47 95 -175 150 -285 54
-110 106 -211 115 -225 9 -14 26 -50 38 -80 13 -30 35 -82 50 -115 15 -33 30
-71 34 -85 7 -25 11 -34 36 -95 29 -70 120 -352 120 -372 0 -12 4 -23 8 -25
10 -3 82 -292 82 -325 0 -12 9 -60 20 -107 61 -262 85 -516 85 -896 0 -248
-15 -494 -39 -650 -40 -259 -122 -648 -147 -692 -5 -10 -9 -26 -9 -35 0 -17
-51 -180 -92 -293 -11 -30 -33 -93 -49 -138 -26 -75 -56 -150 -106 -262 -40
-90 -136 -275 -144 -278 -5 -2 -9 -11 -9 -20 0 -9 -10 -33 -21 -52 -12 -19
-37 -64 -56 -100 -19 -36 -38 -67 -41 -70 -4 -3 -16 -21 -26 -40 -37 -65 -245
-374 -298 -441 -190 -241 -253 -314 -373 -434 -77 -77 -160 -158 -185 -179
-25 -22 -58 -51 -74 -65 -23 -21 -27 -22 -18 -6 6 11 20 30 32 42 25 27 12 31
-16 5 -10 -9 -50 -40 -89 -67 -38 -27 -106 -77 -150 -110 -234 -178 -766 -492
-955 -565 -30 -11 -80 -32 -110 -47 -107 -49 -209 -87 -425 -156 -285 -92
-475 -134 -920 -203 -295 -45 -919 -50 -1183 -9 -399 62 -625 106 -737 145
-33 11 -87 27 -120 35 -55 12 -112 30 -270 81 -27 9 -99 38 -160 64 -60 26
-118 50 -128 54 -11 3 -15 11 -11 18 5 8 2 9 -9 5 -17 -6 -104 27 -212 80 -33
17 -85 41 -115 53 -30 13 -69 34 -86 46 -17 13 -42 26 -55 29 -34 9 -90 55
-66 55 9 0 17 -4 17 -10 0 -5 8 -10 19 -10 10 0 23 -6 30 -13 6 -8 34 -25 63
-38 29 -14 88 -42 131 -62 42 -20 84 -37 92 -37 8 0 15 -4 15 -9 0 -14 32 -23
44 -11 5 5 14 10 18 10 13 0 9 -28 -4 -33 -12 -5 -1 -7 57 -12 20 -2 38 -8 83
-26 32 -13 42 -11 42 6 0 8 -5 15 -11 15 -5 0 -7 5 -4 10 6 9 -14 14 -42 11
-7 -1 -13 8 -13 20 0 18 2 19 15 9 16 -13 30 -7 30 12 0 6 10 13 22 14 12 2
26 5 30 6 13 4 73 -24 73 -34 0 -5 4 -7 9 -4 10 6 167 -48 187 -64 6 -6 13 -8
15 -5 6 5 98 -22 113 -34 6 -4 29 -12 51 -16 22 -4 44 -9 49 -13 6 -3 19 -7
30 -8 12 -1 46 -8 76 -17 98 -28 433 -95 510 -102 41 -5 86 -9 100 -11 14 -2
45 -6 70 -9 25 -2 99 -12 165 -20 129 -17 444 -32 434 -21 -4 4 -42 7 -85 7
-44 0 -115 4 -159 9 -179 21 -335 41 -425 55 -52 8 -120 17 -150 20 -135 15
-445 87 -630 147 -177 57 -458 163 -570 215 -101 47 -282 137 -315 156 -10 7
-35 21 -55 33 -19 12 -66 38 -105 59 -64 34 -187 112 -225 142 -8 7 -53 40
-100 74 -272 199 -327 247 -645 562 -200 199 -312 325 -402 455 -129 185 -323
488 -323 505 0 3 -19 38 -42 79 -48 81 -50 85 -143 283 -80 168 -115 253 -166
403 -52 152 -132 442 -159 577 -12 61 -29 137 -37 170 -54 216 -73 416 -76
790 -3 381 6 537 43 780 6 39 17 113 25 165 18 126 98 434 144 555 4 11 29 85
55 165 59 180 106 298 161 399 23 44 63 121 89 172 26 52 60 117 76 144 16 28
29 58 29 68 1 9 5 17 9 17 8 0 76 102 176 263 21 34 45 66 52 70 8 4 14 12 14
18 0 9 35 58 122 168 23 29 41 62 41 72 -1 11 4 19 12 19 11 0 75 64 75 75 0
3 -9 0 -20 -7 -11 -7 -20 -16 -20 -20 0 -5 -4 -8 -10 -8 -17 0 -50 -34 -50
-52 0 -10 -4 -18 -10 -18 -5 0 -10 -6 -10 -14 0 -21 -64 -73 -100 -81 -23 -5
-29 -10 -21 -18 7 -7 15 -6 26 3 18 15 19 7 4 -21 -5 -11 -14 -17 -19 -14 -5
3 -11 -4 -15 -15 -4 -11 -11 -17 -17 -14 -7 5 -9 1 -5 -9 4 -12 2 -14 -10 -10
-12 5 -15 2 -10 -11 4 -11 -9 -38 -38 -81 -25 -35 -45 -68 -45 -73 0 -5 -9
-17 -20 -27 -11 -10 -20 -23 -20 -30 0 -7 -10 -20 -21 -31 -12 -10 -26 -30
-31 -44 l-10 -25 -18 23 c-11 13 -25 20 -31 17 -7 -5 -2 -15 15 -30 25 -22 26
-22 6 -40 -11 -10 -17 -21 -14 -26 3 -5 0 -18 -6 -30 -9 -15 -15 -18 -23 -10
-14 14 -27 14 -27 1 0 -5 7 -10 16 -10 9 0 14 -6 11 -12 -2 -7 -11 -12 -21
-10 -18 3 -21 -9 -7 -24 6 -5 0 -20 -14 -39 -13 -16 -27 -26 -31 -22 -4 4 0
15 9 25 20 22 21 32 4 32 -16 0 -37 -41 -37 -70 0 -11 -4 -20 -8 -20 -17 0 1
73 24 97 13 14 24 30 24 35 0 12 -47 -20 -54 -38 -7 -18 -35 -18 -42 1 -11 29
-26 15 -18 -17 6 -29 5 -31 -10 -19 -14 12 -19 10 -37 -13 -12 -15 -24 -25
-27 -22 -2 3 1 12 8 21 15 18 46 71 61 105 31 67 55 110 61 110 5 0 8 7 8 16
0 8 18 42 40 74 22 32 40 61 40 65 0 9 72 110 82 113 4 2 8 8 8 13 0 14 67
109 73 103 3 -3 8 -1 12 5 3 6 1 11 -5 11 -6 0 -2 12 10 28 11 15 41 59 67 97
55 85 83 120 210 260 125 139 304 313 438 426 11 9 52 44 90 76 152 129 325
263 339 263 9 0 165 95 275 167 62 41 171 104 242 139 70 35 170 87 221 115
200 111 703 293 1015 368 46 11 94 28 108 39 14 11 47 25 73 32 27 6 66 17 88
25 l39 14 -35 1 c-53 1 -17 16 55 24 222 22 390 36 455 39 170 7 365 6 520 -3z
m-3390 -1138 c-318 -293 -626 -623 -759 -812 -228 -323 -299 -432 -388 -595
-27 -49 -60 -108 -73 -130 -24 -41 -135 -263 -163 -325 -32 -69 -139 -352
-150 -395 -3 -11 -23 -78 -45 -150 -84 -278 -101 -350 -167 -727 -38 -219 -45
-317 -50 -728 -3 -282 -1 -408 10 -510 15 -140 42 -334 50 -360 3 -9 16 -81
29 -160 13 -80 34 -179 46 -220 12 -41 26 -91 30 -110 8 -30 70 -221 88 -270
5 -13 3 -13 -11 -1 -9 7 -17 22 -17 32 0 28 -22 69 -36 69 -10 0 -12 9 -8 29
4 19 0 38 -10 52 -9 13 -16 35 -16 50 0 14 -9 36 -20 49 -15 18 -19 32 -14 56
5 25 1 37 -16 54 -15 15 -22 34 -22 59 1 44 -7 73 -17 67 -10 -6 -11 2 -14 96
-2 52 -8 83 -19 95 -19 22 -30 63 -16 63 14 0 1 48 -17 67 -8 8 -15 22 -16 31
-4 77 -10 132 -19 162 -36 126 -51 820 -25 1135 9 116 20 217 25 225 4 8 10
49 14 90 9 105 76 399 138 610 29 98 118 348 144 408 13 29 24 57 24 61 0 9
96 214 164 351 42 84 116 222 127 236 5 6 21 33 35 60 38 71 85 144 225 349
104 152 132 190 151 203 10 7 18 20 18 28 0 8 7 17 15 20 8 4 15 10 15 15 0 4
10 19 23 32 12 13 57 63 99 113 77 89 205 218 308 310 244 216 290 252 312
246 10 -2 18 1 18 7 0 6 5 11 11 11 5 0 27 11 47 25 20 14 39 25 42 25 3 -1
-42 -45 -100 -98z m-1260 -1738 c-18 -21 -24 -10 -9 18 8 14 14 18 17 10 2 -7
-2 -19 -8 -28z m-31 -56 c-8 -14 -14 -18 -17 -10 -4 13 17 46 25 38 3 -2 -1
-15 -8 -28z m-14 -58 c3 -5 -1 -10 -10 -10 -9 0 -13 5 -10 10 3 6 8 10 10 10
2 0 7 -4 10 -10z m-45 -86 c0 -3 -9 -17 -20 -31 -23 -29 -25 -25 -8 12 10 22
28 35 28 19z m-57 -124 c-3 -12 -8 -19 -11 -16 -5 6 5 36 12 36 2 0 2 -9 -1
-20z m-24 -3460 c0 -10 -3 -8 -9 5 -12 27 -12 43 0 25 5 -8 9 -22 9 -30z m-91
-45 c-3 -3 -9 2 -12 12 -6 14 -5 15 5 6 7 -7 10 -15 7 -18z m156 -401 c3 -8 2
-12 -4 -9 -6 3 -10 10 -10 16 0 14 7 11 14 -7z m30 -60 c3 -8 2 -12 -4 -9 -6
3 -10 10 -10 16 0 14 7 11 14 -7z m7836 -1719 c-7 -8 -18 -15 -24 -15 -6 0 -2
7 8 15 25 19 32 19 16 0z m-140 -110 c-7 -9 -15 -13 -17 -11 -7 7 7 26 19 26
6 0 6 -6 -2 -15z m-6035 -25 c3 -5 1 -10 -4 -10 -6 0 -11 5 -11 10 0 6 2 10 4
10 3 0 8 -4 11 -10z m5985 -4 c0 -2 -8 -10 -17 -17 -16 -13 -17 -12 -4 4 13
16 21 21 21 13z m-5834 -104 c-4 -3 -14 2 -24 12 -16 18 -16 18 6 6 13 -6 21
-14 18 -18z m49 -22 c3 -5 2 -10 -4 -10 -5 0 -13 5 -16 10 -3 6 -2 10 4 10 5
0 13 -4 16 -10z m50 -30 c8 -13 -5 -13 -25 0 -13 8 -13 10 2 10 9 0 20 -4 23
-10z m35 -20 c0 -5 -4 -10 -10 -10 -5 0 -10 5 -10 10 0 6 5 10 10 10 6 0 10
-4 10 -10z m315 -12 c14 -6 25 -15 25 -20 0 -13 -13 -9 -40 12 -28 22 -23 25
15 8z m-268 -18 c14 -11 32 -20 39 -20 8 0 14 -4 14 -10 0 -15 -12 -12 -40 10
-14 11 -31 20 -37 20 -7 0 -13 5 -13 10 0 15 9 12 37 -10z m339 -25 c16 -12
16 -14 3 -15 -9 0 -22 7 -29 15 -16 19 0 19 26 0z m44 -25 c0 -5 -2 -10 -4
-10 -3 0 -8 5 -11 10 -3 6 -1 10 4 10 6 0 11 -4 11 -10z m68 -35 c20 -14 32
-25 27 -25 -16 1 -92 50 -77 50 7 0 30 -11 50 -25z m77 -35 c3 -5 12 -7 20 -3
8 3 15 1 15 -4 0 -5 17 -15 38 -22 20 -8 39 -17 42 -20 3 -4 16 -12 30 -18 24
-11 24 -12 -7 -9 -23 2 -33 -1 -33 -10 0 -8 -5 -14 -11 -14 -7 0 -9 9 -6 21 7
27 -18 36 -42 15 -17 -15 -19 -15 -32 1 -12 15 -12 16 3 11 10 -4 19 -1 22 7
7 19 -9 28 -36 19 -16 -5 -20 -3 -15 9 3 9 1 18 -6 21 -9 3 -9 5 0 5 6 1 14
-3 18 -9z m-36 -54 c10 -12 8 -13 -9 -9 -25 7 -37 23 -17 23 8 0 20 -6 26 -14z
m-39 -20 c0 -2 -9 -6 -20 -9 -11 -3 -20 -1 -20 4 0 5 9 9 20 9 11 0 20 -2 20
-4z"/>
<path d="M4959 9796 c-2 -2 -80 -9 -174 -16 -246 -16 -426 -37 -535 -60 -52
-11 -142 -29 -200 -41 -248 -48 -558 -146 -810 -255 -243 -105 -543 -264 -665
-351 -33 -23 -98 -68 -145 -100 -47 -32 -87 -60 -90 -63 -3 -3 -38 -30 -78
-59 l-72 -53 242 -247 c133 -135 254 -256 268 -268 15 -12 71 -69 125 -128 89
-97 97 -108 82 -122 -14 -14 -18 -14 -44 8 -15 13 -59 58 -98 99 -169 182
-249 266 -412 434 -95 98 -173 182 -173 187 0 18 -22 8 -75 -32 l-55 -41 72
-82 c40 -44 194 -204 343 -354 148 -150 276 -284 283 -298 7 -13 17 -24 22
-24 6 0 10 -7 10 -15 0 -44 -57 5 -343 298 -168 171 -329 340 -357 375 -29 34
-57 62 -63 62 -7 -1 -36 -23 -65 -50 l-53 -50 346 -345 c360 -360 417 -425
371 -425 -8 0 -40 28 -72 63 -32 34 -90 91 -128 127 -38 36 -114 112 -170 170
-143 149 -378 380 -387 380 -4 0 -24 -20 -44 -44 -36 -44 -36 -45 -19 -73 10
-15 82 -93 161 -173 78 -80 228 -232 333 -339 106 -107 199 -205 207 -218 20
-30 5 -50 -24 -35 -22 12 -562 564 -652 667 -33 39 -61 76 -61 83 0 6 -4 12
-8 12 -12 0 -112 -104 -112 -116 0 -6 160 -172 355 -368 196 -197 360 -367
366 -378 8 -14 8 -23 0 -31 -7 -7 -120 100 -381 364 l-371 374 -40 -43 c-22
-23 -39 -47 -37 -52 4 -12 126 -139 418 -435 131 -132 251 -260 269 -284 56
-78 34 -97 -33 -28 -22 23 -149 152 -281 287 -132 135 -274 283 -314 330 -41
47 -78 86 -82 88 -10 4 -99 -88 -99 -102 0 -7 156 -167 346 -356 337 -336 384
-386 384 -409 0 -29 -44 -4 -111 62 -162 157 -582 593 -607 629 -15 21 -29 38
-32 37 -9 0 -90 -111 -90 -124 0 -6 14 -22 31 -34 36 -27 490 -454 565 -533
77 -79 134 -151 134 -168 0 -8 -58 43 -128 113 -70 70 -132 124 -137 120 -4
-4 -5 -3 -2 3 6 11 -44 63 -113 119 -19 15 -104 93 -188 174 -84 80 -158 148
-163 149 -5 2 -9 10 -9 19 0 19 -21 12 -34 -12 -6 -11 -19 -31 -28 -44 -22
-29 -23 -57 -4 -68 8 -4 128 -119 268 -254 246 -239 323 -312 401 -380 36 -31
50 -69 25 -69 -6 0 -41 28 -77 63 -203 193 -360 339 -391 364 -76 62 -193 180
-222 225 -17 26 -33 48 -34 48 -2 0 -23 -28 -47 -62 -47 -67 -65 -108 -48
-108 9 0 143 -129 618 -596 46 -45 83 -87 83 -93 0 -20 -17 -6 -305 259 -39
36 -122 111 -185 166 -124 110 -213 200 -224 229 -6 17 -7 17 -26 0 -16 -14
-223 -420 -252 -494 -57 -147 -186 -533 -213 -641 -48 -190 -105 -519 -120
-690 -13 -138 -15 -179 -21 -395 -6 -206 0 -373 22 -625 15 -173 76 -485 137
-705 85 -301 110 -380 148 -463 16 -35 29 -67 29 -71 0 -17 75 -188 101 -229
16 -25 34 -61 40 -81 10 -29 31 -67 55 -100 2 -2 63 57 136 130 294 296 558
552 564 546 14 -14 -40 -73 -349 -384 l-331 -333 32 -65 c17 -36 35 -65 39
-64 5 0 92 89 195 197 102 109 215 227 250 263 92 97 218 212 225 206 15 -16
-37 -75 -332 -373 -179 -181 -325 -331 -325 -336 0 -12 61 -98 70 -98 4 0 15
12 25 26 9 15 31 39 49 54 17 15 140 134 272 264 253 247 291 282 301 272 12
-11 -31 -58 -326 -351 -165 -165 -301 -305 -301 -311 0 -13 59 -94 70 -94 4 0
129 122 276 271 267 269 340 336 350 326 11 -11 -14 -38 -308 -338 l-298 -303
26 -38 c15 -21 33 -43 40 -49 8 -6 14 -18 14 -25 0 -8 3 -14 8 -14 7 0 124
125 200 214 62 72 383 396 405 408 10 5 21 7 24 4 8 -8 -35 -56 -226 -251 -97
-100 -220 -227 -273 -283 -53 -56 -102 -102 -108 -102 -11 0 42 -81 66 -101 8
-6 98 79 305 287 162 162 302 300 312 305 13 8 17 6 17 -7 0 -9 -136 -153
-302 -320 -295 -297 -301 -304 -288 -328 7 -14 24 -36 37 -48 l25 -23 282 286
c156 158 292 292 304 298 29 15 38 -3 15 -32 -10 -13 -143 -146 -296 -296
-152 -151 -277 -280 -277 -288 0 -15 52 -73 66 -73 8 0 310 287 486 463 70 70
132 127 138 127 21 0 8 -24 -47 -82 -55 -58 -487 -487 -501 -498 -4 -3 -16
-15 -26 -28 l-20 -23 39 -39 c22 -22 44 -40 50 -40 10 0 95 85 464 463 126
129 151 150 151 128 0 -18 -166 -197 -412 -444 -98 -98 -178 -182 -178 -186 0
-11 130 -134 166 -158 l26 -17 117 120 c64 65 183 190 264 276 132 140 210
209 222 196 13 -13 -74 -111 -316 -353 l-269 -270 35 -32 c19 -18 39 -33 44
-33 8 0 192 175 513 489 113 110 147 132 117 73 -8 -15 -143 -156 -302 -313
l-287 -286 49 -41 c27 -23 51 -42 54 -42 2 0 146 142 320 315 173 173 321 315
327 315 26 0 -35 -68 -317 -356 l-293 -298 28 -29 c15 -16 40 -35 55 -44 28
-14 29 -13 70 34 23 26 89 96 147 155 58 58 167 172 243 252 129 135 167 166
167 133 0 -25 -37 -66 -299 -330 -146 -147 -266 -273 -266 -279 0 -13 61 -58
80 -58 6 0 121 113 256 251 219 226 363 358 377 344 10 -10 -80 -107 -335
-364 -145 -146 -263 -266 -263 -267 0 -3 100 -67 113 -72 4 -2 27 18 50 45 36
41 223 235 472 488 77 79 142 131 152 122 13 -13 -85 -122 -357 -397 -277
-279 -281 -284 -260 -300 12 -9 37 -24 55 -34 l33 -18 144 148 c196 203 447
452 480 475 17 13 29 16 33 9 7 -11 -76 -99 -415 -443 -102 -103 -186 -194
-188 -201 -3 -12 67 -66 86 -66 4 0 105 98 224 218 418 419 476 475 487 468 8
-5 8 -13 0 -29 -7 -12 -158 -169 -337 -349 -178 -179 -321 -331 -318 -337 10
-15 104 -61 126 -61 10 0 28 12 39 27 20 29 560 567 664 663 31 29 60 50 64
47 15 -16 -74 -114 -386 -425 -190 -189 -330 -336 -325 -341 27 -25 247 -113
449 -181 286 -96 341 -112 485 -144 190 -41 263 -54 545 -91 256 -35 285 -37
555 -37 481 -1 887 57 1275 182 424 136 597 204 870 345 145 75 429 238 445
255 3 3 24 15 48 28 48 26 147 99 327 240 138 109 537 504 605 600 25 35 70
96 101 135 51 67 180 251 257 371 19 28 54 92 78 141 25 50 68 131 95 180 45
81 87 166 139 280 69 153 211 572 241 710 11 55 34 152 51 215 31 122 81 493
99 750 13 173 5 501 -17 690 -13 121 -70 438 -108 610 -27 121 -168 532 -241
700 -104 243 -358 685 -511 892 -43 58 -113 152 -154 209 -212 293 -653 720
-990 959 -274 195 -411 278 -640 393 -277 137 -657 281 -950 359 -107 28 -325
75 -390 82 -30 4 -84 11 -120 16 -162 23 -262 30 -491 35 -135 3 -247 3 -250
1z m620 -398 c11 -10 14 -10 18 0 6 17 20 15 27 -4 3 -9 2 -12 -5 -9 -5 4 -16
2 -24 -5 -16 -13 -60 4 -50 21 8 12 18 11 34 -3z m-378 -18 c22 -12 26 -40 5
-40 -19 0 -48 29 -41 41 8 11 12 11 36 -1z m769 -5 c0 -10 11 -15 35 -15 23 0
35 -5 35 -14 0 -10 -13 -14 -50 -13 -27 1 -50 4 -50 7 1 36 30 70 30 35z
m-345 -25 c-3 -5 -10 -10 -16 -10 -5 0 -9 5 -9 10 0 6 7 10 16 10 8 0 12 -4 9
-10z m509 -42 c-3 -4 -20 -8 -38 -8 -18 0 -46 -6 -62 -14 -16 -8 -45 -17 -64
-21 -31 -5 -33 -4 -17 8 9 8 17 19 17 25 0 6 10 13 23 15 39 7 146 4 141 -5z
m-1967 -43 c35 -35 36 -37 30 -98 -3 -34 -9 -71 -12 -82 -5 -17 0 -21 32 -25
117 -14 529 6 555 28 7 5 36 10 63 10 28 0 84 5 125 11 118 16 312 26 467 23
l143 -3 14 35 c19 47 60 55 121 26 25 -12 45 -26 45 -32 0 -6 6 -8 14 -5 8 3
20 0 26 -8 23 -27 -143 -82 -173 -57 -9 8 -53 9 -148 2 -74 -5 -192 -10 -264
-10 -94 0 -161 -7 -242 -23 -74 -15 -119 -20 -129 -14 -19 11 -87 6 -284 -18
-135 -17 -235 -15 -328 6 -24 5 -58 6 -80 1 -54 -12 -130 9 -160 44 -21 24
-24 35 -20 90 4 69 21 97 73 120 54 24 93 18 132 -21z m2221 -3 c23 -22 42
-47 42 -56 0 -9 5 -14 10 -11 6 4 7 11 4 17 -5 8 -1 9 12 4 28 -11 49 -15 157
-30 121 -16 133 -25 78 -60 -22 -14 -47 -26 -56 -26 -8 0 -15 -4 -15 -10 0 -5
-13 -16 -29 -25 -16 -8 -35 -20 -43 -27 -20 -19 -56 -38 -70 -38 -8 0 -22 -11
-32 -25 -11 -14 -29 -25 -42 -25 -16 0 -24 -6 -24 -18 0 -17 -73 -82 -92 -82
-5 0 -8 -8 -7 -17 3 -26 -11 -73 -33 -108 -10 -16 -21 -38 -24 -47 -4 -10 -16
-18 -28 -18 -20 -1 -20 -1 -3 -14 16 -12 15 -14 -13 -26 -16 -7 -30 -19 -30
-26 0 -16 -26 -17 -85 -5 -22 5 -67 14 -100 21 -33 6 -116 24 -185 40 -183 42
-302 60 -415 63 -55 2 -106 6 -113 10 -6 5 -29 5 -49 2 -35 -6 -36 -5 -19 9
11 9 15 20 10 28 -6 10 -5 10 7 2 25 -20 82 -23 102 -6 15 14 17 13 17 -5 0
-15 7 -20 30 -20 19 0 30 5 30 15 0 9 -6 12 -16 8 -9 -3 -26 5 -42 19 -15 14
-30 25 -34 25 -17 0 -7 28 11 33 23 6 53 -12 34 -20 -7 -2 -13 -9 -13 -15 0
-7 4 -7 13 0 8 7 18 7 27 2 8 -6 18 -10 22 -10 16 0 77 74 83 101 4 16 10 29
13 29 4 0 22 14 41 30 34 30 81 40 81 18 0 -7 7 -2 16 10 16 23 39 20 30 -3
-4 -12 38 -36 68 -39 22 -2 16 -26 -6 -26 -20 -1 -21 -2 -8 -13 35 -28 41 -43
27 -70 -7 -14 -12 -46 -12 -72 2 -46 2 -47 -27 -43 -18 3 -27 0 -25 -6 2 -6
31 -11 68 -12 35 0 74 -4 87 -8 16 -6 22 -3 22 8 0 9 9 16 20 16 12 0 20 7 20
16 0 12 5 14 18 9 21 -9 116 -27 157 -29 26 -1 30 3 36 34 7 40 35 96 61 124
20 22 22 32 8 41 -15 9 -12 25 5 25 9 0 18 7 22 16 3 9 29 27 57 39 29 13 68
41 88 63 30 33 38 51 43 99 4 32 12 63 17 69 6 8 1 18 -14 31 -31 25 -53 53
-41 53 5 0 28 -17 51 -38z m-111 7 c64 -31 86 -64 81 -120 -6 -54 -30 -91 -76
-113 -61 -30 -147 -13 -172 33 -16 31 -12 122 8 161 30 61 85 75 159 39z m763
6 c0 -9 -47 -79 -71 -107 -13 -14 -168 -173 -344 -352 -176 -180 -318 -330
-317 -334 2 -4 8 -6 13 -4 5 1 27 -7 47 -17 l38 -19 270 267 c271 268 425 411
445 411 30 0 -57 -101 -280 -326 -135 -137 -275 -275 -309 -307 -57 -54 -69
-77 -40 -77 7 0 32 -10 56 -22 l45 -21 136 139 c75 77 203 210 284 297 142
150 323 315 334 303 9 -9 -82 -118 -177 -211 -51 -49 -137 -139 -192 -200 -56
-60 -152 -162 -215 -226 -62 -64 -113 -121 -113 -127 0 -11 89 -62 107 -62 5
0 14 12 20 28 18 38 705 730 710 714 10 -26 -36 -80 -321 -377 -110 -115 -236
-245 -278 -288 -43 -43 -78 -82 -78 -87 0 -7 92 -60 106 -60 2 0 4 6 4 14 0 7
150 165 333 350 293 297 367 363 367 328 0 -18 -255 -292 -559 -601 -62 -63
-109 -117 -103 -119 5 -1 31 -18 58 -37 l47 -34 161 167 c314 327 539 551 548
546 14 -9 -37 -73 -150 -188 -60 -61 -135 -140 -167 -176 -32 -36 -106 -115
-164 -175 -58 -61 -124 -130 -146 -153 l-40 -43 40 -34 c47 -40 63 -43 73 -14
9 22 597 617 645 651 94 68 -59 -119 -298 -362 -212 -215 -305 -313 -318 -335
-4 -9 7 -24 34 -46 l42 -33 20 30 c37 52 421 444 562 574 74 68 101 79 75 29
-19 -34 -106 -127 -371 -395 -228 -229 -267 -274 -239 -274 5 0 26 -14 46 -32
32 -29 38 -30 48 -16 39 53 366 390 534 551 124 117 157 141 127 89 -23 -38
-80 -100 -273 -297 -92 -94 -213 -219 -270 -279 l-103 -109 33 -28 c18 -15 38
-28 44 -29 6 0 123 114 261 253 361 364 429 430 442 426 28 -10 -45 -90 -606
-668 -24 -24 -43 -47 -43 -52 0 -4 10 -19 23 -31 12 -13 46 -50 76 -82 l53
-57 72 73 c40 40 81 80 92 89 10 8 124 124 253 257 215 222 262 264 278 248
18 -18 -170 -227 -534 -595 -62 -62 -113 -115 -113 -118 0 -2 15 -22 32 -44
l33 -41 18 24 c25 31 472 482 570 574 43 41 83 74 88 74 44 0 -52 -109 -384
-440 l-266 -265 39 -44 c21 -24 41 -49 44 -55 2 -6 71 59 152 144 231 242 541
550 553 550 39 0 -35 -85 -384 -438 -322 -325 -299 -294 -247 -350 6 -7 12
-18 12 -23 0 -23 28 0 142 119 167 175 528 531 556 550 58 38 24 -20 -78 -133
-60 -67 -371 -386 -492 -505 l-97 -95 27 -31 c15 -17 32 -38 37 -47 8 -14 29
3 127 111 159 173 506 523 546 551 25 17 32 19 32 8 0 -29 -157 -202 -455
-505 -115 -117 -211 -219 -213 -227 -2 -7 8 -32 22 -54 14 -22 26 -45 26 -51
0 -21 26 -9 48 23 33 48 655 677 670 677 19 0 14 -19 -14 -54 -55 -66 -248
-269 -456 -480 -120 -121 -218 -225 -218 -231 0 -14 44 -95 51 -95 4 0 114
109 245 243 232 236 464 459 484 465 23 8 6 -20 -52 -84 -81 -91 -360 -385
-520 -549 -71 -72 -128 -137 -128 -143 0 -7 9 -22 20 -34 11 -12 20 -30 20
-40 0 -10 4 -18 9 -18 4 0 150 143 322 318 308 312 403 401 416 388 13 -12
-52 -86 -264 -302 -120 -121 -265 -269 -323 -328 -58 -59 -112 -111 -121 -116
-14 -8 -12 -17 15 -72 l30 -64 54 50 c30 28 182 179 339 336 282 283 383 375
383 348 0 -25 -156 -195 -575 -626 -125 -129 -154 -166 -141 -179 4 -4 33 19
64 52 125 133 393 405 399 405 3 0 12 8 20 18 12 15 13 14 12 -13 -2 -46 -1
-50 24 -77 33 -38 47 -65 47 -95 0 -14 6 -34 14 -42 17 -20 32 -88 28 -123 -2
-21 -10 -30 -30 -34 -83 -19 -240 -75 -280 -100 -27 -18 -72 -87 -72 -112 0
-9 -7 -27 -15 -39 -14 -20 -14 -27 1 -75 9 -29 20 -57 25 -63 14 -19 22 -85
10 -85 -6 0 -11 -10 -11 -22 1 -21 2 -21 11 -5 15 25 29 21 29 -10 0 -32 21
-93 32 -93 4 0 8 7 8 15 0 8 5 15 10 15 6 0 13 -7 16 -15 4 -8 18 -15 34 -15
33 0 50 -38 25 -56 -8 -6 -15 -16 -15 -22 0 -7 -11 -14 -25 -18 -26 -6 -56
-34 -36 -34 18 0 0 -63 -26 -89 -24 -25 -29 -47 -14 -69 4 -7 4 -36 0 -65 -6
-37 -5 -53 4 -59 40 -24 57 -44 57 -64 0 -13 4 -24 8 -24 5 0 19 -9 32 -20 30
-26 38 -96 16 -150 -9 -22 -16 -51 -16 -63 0 -22 -55 -75 -72 -69 -5 1 -8 -3
-8 -8 0 -6 -18 -33 -39 -60 -32 -40 -39 -57 -37 -87 1 -21 5 -43 8 -49 4 -5
10 -45 14 -87 4 -42 11 -77 16 -77 5 0 8 -17 7 -38 -2 -21 0 -42 4 -48 12 -20
29 -99 33 -154 3 -44 0 -57 -16 -72 -10 -10 -24 -18 -29 -18 -14 0 -33 -36
-30 -58 3 -29 -1 -42 -11 -42 -5 0 -10 9 -10 21 0 11 -4 17 -10 14 -5 -3 -10
-18 -10 -33 0 -23 -8 -31 -53 -51 -50 -23 -54 -28 -65 -74 -6 -27 -18 -63 -27
-79 -8 -17 -15 -35 -15 -40 0 -15 19 -8 23 10 4 13 5 12 6 -4 0 -12 -10 -32
-24 -45 -28 -28 -31 -39 -10 -39 20 0 19 -27 -1 -38 -11 -6 -13 -11 -5 -16 16
-10 14 -46 -3 -46 -8 0 -21 -6 -28 -13 -7 -8 -23 -19 -36 -26 -14 -8 -22 -21
-22 -39 0 -21 2 -24 10 -12 8 11 9 7 4 -15 -8 -36 -15 -45 -21 -27 -15 40 -25
-44 -12 -98 2 -8 -2 -14 -8 -13 -7 2 -13 -4 -13 -12 0 -8 5 -15 11 -15 6 0 8
-9 4 -21 -6 -18 -4 -20 16 -14 18 6 21 4 16 -9 -4 -11 2 -20 21 -30 15 -8 48
-34 74 -58 26 -23 69 -54 95 -68 52 -28 45 -28 240 6 18 4 40 3 49 0 14 -5 14
-7 0 -22 -18 -17 -21 -34 -7 -34 9 0 22 -52 15 -59 -2 -2 -11 2 -19 9 -14 11
-14 10 -6 -12 8 -22 6 -27 -17 -39 -15 -7 -29 -15 -31 -16 -2 -1 2 -9 9 -18
10 -12 10 -15 -4 -15 -23 0 -20 -6 23 -53 52 -55 84 -97 75 -97 -8 0 -99 76
-159 132 -21 21 -43 38 -49 38 -5 0 47 -57 117 -127 69 -71 142 -146 162 -168
34 -39 42 -74 19 -82 -18 -6 -744 723 -744 746 0 11 8 24 17 30 10 5 18 15 19
23 1 23 26 78 35 78 13 0 11 -13 -7 -38 -21 -31 -11 -39 15 -13 18 18 19 24 9
46 -8 18 -8 32 -1 48 35 75 69 143 74 147 4 3 10 21 14 40 10 49 66 213 76
225 5 5 9 20 9 32 0 27 60 284 91 388 24 81 26 110 35 555 6 287 4 347 -10
421 -9 47 -16 102 -16 121 0 47 -38 274 -50 296 -4 9 -15 46 -24 82 -46 195
-57 235 -76 265 -11 18 -27 38 -35 45 -13 11 -13 7 -1 -31 7 -24 18 -55 24
-69 7 -14 21 -61 32 -105 11 -44 26 -103 34 -132 18 -64 51 -262 76 -453 45
-339 12 -820 -85 -1215 -68 -283 -178 -559 -326 -825 -17 -30 -53 -97 -80
-148 -61 -115 -169 -276 -210 -312 -3 -3 -30 -39 -61 -80 -64 -87 -270 -305
-344 -364 -28 -23 -89 -74 -135 -115 -46 -40 -95 -83 -109 -95 -14 -11 -60
-51 -102 -88 -101 -88 -167 -131 -319 -210 -69 -36 -141 -77 -161 -91 -91 -61
-569 -244 -762 -292 -84 -21 -254 -52 -356 -65 -46 -6 -87 -13 -90 -15 -3 -1
-113 -8 -245 -15 -387 -20 -689 9 -1035 98 -221 57 -547 169 -649 223 -30 16
-59 29 -65 29 -34 0 -368 184 -531 293 -130 87 -223 165 -371 312 -219 218
-420 460 -510 616 -20 35 -49 82 -64 104 -21 32 -107 179 -170 293 -5 9 -18
38 -30 65 -11 26 -29 66 -39 90 -52 116 -153 382 -175 457 -41 145 -95 458
-118 680 -18 171 -17 690 1 795 40 239 52 301 81 412 28 111 45 163 70 218 5
11 22 56 38 100 61 169 216 478 312 625 27 41 53 82 57 90 29 59 200 294 281
385 10 11 38 45 62 75 86 105 298 305 482 452 77 62 238 168 323 211 39 20
102 57 140 81 82 52 288 156 309 156 3 0 39 15 79 34 218 100 638 209 912 236
61 6 151 15 200 20 119 12 372 12 515 0 144 -12 266 -32 445 -70 237 -51 269
-58 324 -77 l52 -18 346 345 c190 190 368 364 395 388 44 38 68 51 68 37z
m-1265 -75 c3 -5 1 -10 -4 -10 -6 0 -11 5 -11 10 0 6 2 10 4 10 3 0 8 -4 11
-10z m-2133 -89 c31 -28 33 -33 33 -96 0 -64 -1 -68 -37 -101 -32 -29 -45 -34
-87 -34 -70 0 -102 29 -108 97 -13 128 112 212 199 134z m-824 -108 c64 -60
136 -130 162 -157 25 -28 145 -150 268 -271 205 -205 245 -252 208 -243 -22 5
-205 177 -431 404 -110 110 -237 233 -282 273 -46 40 -83 79 -83 87 0 36 48 8
158 -93z m-249 -81 c36 -37 165 -162 286 -277 400 -381 395 -376 395 -407 0
-15 -5 -28 -11 -28 -6 0 -179 169 -386 376 -339 340 -396 404 -357 404 3 0 36
-31 73 -68z m-62 -174 c78 -79 239 -239 358 -356 196 -195 242 -252 204 -252
-22 0 -729 719 -729 741 0 27 40 -5 167 -133z m2858 92 c3 -5 1 -10 -4 -10 -6
0 -11 5 -11 10 0 6 2 10 4 10 3 0 8 -4 11 -10z m1730 -98 c-55 -53 -111 -106
-125 -116 -14 -10 28 33 92 97 65 65 121 117 125 117 5 0 -37 -44 -92 -98z
m-1945 -3 c0 -5 -12 -9 -27 -10 -66 -2 -143 -7 -208 -13 -38 -3 -104 -8 -145
-12 -41 -3 -83 -8 -92 -10 -10 -3 -18 -1 -18 4 0 9 49 17 175 28 28 3 84 8
125 12 112 10 190 11 190 1z m-515 -49 c-27 -12 -35 -12 -35 0 0 6 12 10 28 9
24 0 25 -1 7 -9z m-48 -6 c-3 -3 -12 -4 -19 -1 -8 3 -5 6 6 6 11 1 17 -2 13
-5z m3013 -397 c0 -1 -28 -29 -62 -62 l-63 -60 60 63 c55 58 65 67 65 59z m15
-216 c-92 -93 -172 -175 -176 -183 -4 -7 -11 -9 -15 -5 -4 4 22 37 57 74 96
103 293 292 298 287 3 -2 -71 -80 -164 -173z m547 114 c-2 -13 -15 -36 -28
-50 -13 -14 -24 -28 -24 -31 0 -3 -7 -12 -15 -20 -8 -9 -15 -21 -15 -27 1 -7
8 -3 18 8 9 11 30 26 46 33 83 37 35 -64 -103 -214 -113 -124 -194 -202 -233
-227 -35 -22 -36 -21 -40 5 -4 29 -34 35 -60 11 -15 -13 -22 -15 -25 -5 -3 6
-11 12 -19 12 -35 0 -28 8 289 328 111 111 204 202 208 202 3 0 4 -11 1 -25z
m-232 -8 c0 -1 -33 -34 -72 -72 -66 -64 -60 -55 27 40 26 28 45 42 45 32z
m290 -342 c-13 -14 -28 -25 -34 -25 -6 0 3 11 19 25 39 31 45 32 15 0z m154
-111 c-55 -59 -152 -162 -216 -228 -65 -67 -127 -133 -139 -148 -19 -24 -49
-29 -49 -8 0 5 51 60 113 123 61 63 147 152 191 196 101 105 187 183 193 177
3 -3 -39 -53 -93 -112z m-224 42 c0 -2 -8 -10 -17 -17 -16 -13 -17 -12 -4 4
13 16 21 21 21 13z m440 -264 c0 -4 -16 -25 -35 -45 -44 -47 -46 -38 -2 13 34
42 37 45 37 32z m151 -116 c-17 -18 -31 -37 -31 -44 0 -7 -7 -12 -15 -12 -8 0
-15 -5 -15 -11 0 -22 -152 -185 -225 -242 l-40 -32 39 45 c22 25 62 70 90 101
28 30 74 82 101 114 102 120 119 137 123 125 2 -6 -10 -26 -27 -44z m-291 -36
c0 -5 -5 -10 -11 -10 -5 0 -7 5 -4 10 3 6 8 10 11 10 2 0 4 -4 4 -10z m511
-197 c-14 -28 -402 -413 -415 -413 -6 0 -2 8 9 18 12 9 37 37 57 62 59 75 338
350 354 350 2 0 0 -8 -5 -17z m70 -170 c-13 -25 -285 -318 -361 -389 -34 -32
-84 -80 -110 -106 -43 -43 -70 -59 -70 -42 0 3 13 20 30 37 70 75 136 147 198
216 60 66 309 301 319 301 2 0 -1 -8 -6 -17z m-7727 -153 c6 0 24 -11 39 -25
53 -50 30 -150 -43 -179 -54 -22 -92 -20 -123 4 -42 34 -45 79 -8 144 33 58
48 67 95 60 16 -2 34 -4 40 -4z m7943 -532 c18 -18 43 -52 54 -76 21 -42 21
-44 3 -85 -10 -23 -24 -50 -32 -59 -23 -27 1 -21 32 7 31 28 46 32 46 10 0 -8
-7 -15 -15 -15 -20 0 -19 -6 5 -30 11 -11 17 -26 14 -35 -4 -8 -2 -15 4 -15 5
0 7 -11 5 -24 -3 -13 0 -27 6 -30 6 -4 11 -22 11 -39 0 -18 5 -48 10 -67 11
-36 14 -137 5 -179 -2 -14 0 -30 6 -37 5 -6 9 -16 8 -20 -1 -5 0 -11 1 -14 1
-3 4 -16 6 -30 8 -56 13 -87 23 -125 10 -42 15 -100 12 -148 -1 -28 -2 -29
-41 -22 -45 8 -93 -6 -161 -47 -25 -16 -51 -28 -57 -28 -6 0 -24 -16 -40 -36
l-30 -36 5 423 c3 233 8 440 12 459 6 29 12 36 36 40 30 5 29 6 -16 23 -62 24
-101 79 -107 150 -3 42 0 57 18 79 43 56 123 58 177 6z m-8051 -274 c40 -42
42 -62 15 -160 -11 -38 -23 -95 -26 -127 -10 -94 -8 -310 4 -346 17 -55 -16
-149 -39 -111 -4 7 -2 28 6 46 16 39 18 84 4 84 -5 0 -10 -7 -10 -15 0 -8 -6
-15 -13 -15 -20 0 -22 295 -2 392 22 110 24 207 4 221 -29 18 -66 1 -73 -35
-6 -28 -3 -36 21 -55 l28 -23 -27 0 c-52 0 -63 62 -22 119 54 73 80 78 130 25z
m-44 -895 c-2 -52 -7 -118 -12 -148 -14 -79 -12 -188 5 -278 16 -81 15 -85
-25 -213 -5 -15 -8 24 -8 100 -1 69 -2 242 -4 385 -2 143 -2 264 0 268 2 5 14
2 25 -6 20 -14 22 -22 19 -108z m8292 95 c14 -15 30 -43 36 -63 10 -40 9 -159
-3 -178 -4 -6 -3 -15 3 -18 8 -5 7 -11 -1 -21 -6 -7 -9 -20 -6 -29 4 -8 2 -17
-3 -20 -4 -3 -10 1 -13 7 -2 7 -7 10 -11 6 -4 -3 -2 -16 4 -28 15 -27 6 -155
-12 -177 -19 -23 -38 -100 -41 -163 -2 -30 -7 -61 -11 -69 -5 -7 -10 -68 -12
-134 -2 -78 -7 -123 -14 -127 -9 -5 -9 -9 -1 -14 12 -8 15 -46 4 -46 -4 0 -24
17 -45 37 -45 44 -85 47 -158 14 -84 -38 -80 -45 -80 162 1 172 10 321 26 395
5 26 3 32 -10 32 -10 0 -16 8 -16 21 0 12 -8 27 -17 34 -15 12 -14 15 14 44
44 43 81 42 133 -5 l40 -36 0 25 c0 14 5 29 11 33 6 3 9 15 6 25 -5 17 1 19
53 19 91 0 125 22 53 34 -21 3 -60 23 -88 44 -48 36 -50 40 -49 84 1 36 8 55
34 86 33 42 47 48 111 51 27 1 43 -6 63 -25z m-8501 -26 c73 -39 82 -132 18
-175 -39 -27 -69 -29 -97 -8 -17 13 -16 14 18 8 84 -13 122 67 57 121 -17 14
-43 29 -57 32 -46 10 -53 14 -47 24 8 14 81 13 108 -2z m-135 -65 c-1 -21 2
-49 6 -63 7 -24 6 -24 -8 -6 -21 27 -21 106 0 106 2 0 2 -17 2 -37z m338 -830
c5 -29 3 -43 -5 -43 -6 0 -11 8 -11 19 0 10 -2 47 -5 82 -4 57 -3 60 5 24 6
-22 13 -59 16 -82z m8130 -113 c8 0 26 -11 39 -25 44 -43 30 -171 -23 -219
-17 -15 -32 -18 -72 -14 -101 10 -136 85 -90 192 10 25 21 46 22 46 2 0 21 7
43 15 22 8 46 12 53 10 8 -3 20 -5 28 -5z m-8046 -25 c44 -33 59 -60 60 -109
0 -75 -75 -145 -140 -131 -17 4 -30 10 -30 15 0 5 -11 21 -25 36 -56 60 -47
155 19 195 42 26 76 24 116 -6z m-161 -200 c19 -19 31 -35 27 -35 -9 0 -66 30
-66 34 0 3 -3 11 -6 20 -10 26 9 18 45 -19z m8261 -35 c0 -5 -5 -10 -11 -10
-5 0 -7 5 -4 10 3 6 8 10 11 10 2 0 4 -4 4 -10z m-46 -40 c-9 -9 -39 -15 -103
-22 -30 -3 -16 7 24 17 65 17 92 18 79 5z m-195 -44 c12 -14 2 -27 -29 -39 -8
-3 -3 -6 13 -6 16 -1 37 4 49 10 27 15 34 4 18 -27 -12 -22 -12 -27 0 -35 13
-8 13 -11 -1 -22 -15 -11 -12 -16 22 -40 22 -16 39 -35 39 -43 0 -21 -12 -17
-45 17 -21 22 -35 29 -52 24 -12 -3 -41 -2 -63 1 -36 6 -40 9 -40 35 0 29 -1
29 -42 23 -48 -7 -47 -7 27 52 28 21 54 45 58 52 11 16 32 15 46 -2z m-7472
-40 c-31 -46 -212 -238 -422 -445 -119 -118 -221 -223 -226 -233 -15 -28 -26
-21 -31 17 -4 34 1 39 117 145 66 60 221 211 345 335 123 125 226 222 228 216
2 -7 -3 -22 -11 -35z m7086 3 c3 -12 0 -30 -6 -40 -9 -16 -9 -21 1 -28 14 -8
-3 -34 -60 -92 -16 -15 -28 -32 -28 -37 0 -20 -19 -22 -54 -6 -19 9 -36 24
-38 33 -7 28 3 51 21 51 30 0 61 46 55 80 -6 25 -4 30 12 29 50 -5 76 1 70 16
-3 9 0 15 8 15 8 0 16 -10 19 -21z m177 -79 c0 -5 -4 -10 -10 -10 -5 0 -10 5
-10 10 0 6 5 10 10 10 6 0 10 -4 10 -10z m256 -81 c44 -27 58 -76 44 -150 -18
-95 -55 -127 -134 -115 -82 13 -131 101 -107 194 14 50 28 62 94 78 69 17 65
17 103 -7z m-568 -92 c3 -24 0 -27 -20 -25 -13 2 -28 7 -35 11 -7 4 -14 -1
-18 -14 -4 -13 -11 -17 -16 -12 -6 6 -4 21 6 39 8 16 15 25 15 20 0 -6 6 -4
12 2 22 22 53 10 56 -21z m-38 -86 c0 -11 -30 -19 -49 -13 -11 4 -11 6 0 13
18 11 49 11 49 0z m680 -49 c0 -4 -11 -20 -26 -35 -14 -15 -23 -31 -19 -36 12
-20 -22 -36 -70 -33 l-48 4 34 16 c50 23 109 71 109 88 0 9 5 12 10 9 6 -3 10
-9 10 -13z m-205 -132 c3 -5 -1 -10 -9 -10 -9 0 -16 5 -16 10 0 6 4 10 9 10 6
0 13 -4 16 -10z m105 -5 c0 -8 -15 -21 -34 -29 -19 -8 -39 -23 -45 -34 -7 -14
-17 -18 -31 -15 -25 7 -26 21 -2 30 9 4 32 19 50 35 36 31 62 36 62 13z m-588
-267 c276 -276 409 -421 447 -488 37 -66 4 -48 -89 48 -239 246 -504 515 -573
581 -70 67 -88 96 -70 114 3 4 10 7 14 7 5 0 127 -118 271 -262z m-18 -235
c289 -289 406 -414 406 -436 0 -32 -85 44 -432 390 -306 304 -337 341 -311
366 3 4 7 7 7 7 1 0 149 -147 330 -327z m453 291 c-9 -9 -28 6 -21 18 4 6 10
6 17 -1 6 -6 8 -13 4 -17z m-666 -334 c220 -213 452 -459 477 -506 7 -14 10
-29 7 -34 -12 -19 -60 18 -145 111 -47 51 -97 106 -112 122 -16 16 -28 33 -28
39 0 6 -7 7 -16 4 -11 -4 -38 17 -87 67 -125 128 -213 222 -187 201 70 -58 42
-23 -57 73 -108 103 -138 148 -94 141 11 -2 120 -100 242 -218z m2 -286 c194
-195 358 -366 365 -380 60 -114 -251 171 -685 627 -49 51 -61 70 -56 87 3 12
9 22 14 22 6 0 168 -160 362 -356z m-183 -92 c157 -159 311 -316 343 -351 57
-63 70 -96 41 -108 -16 -6 -68 44 -258 247 -44 47 -167 173 -274 282 -111 112
-191 201 -188 207 22 34 57 5 336 -277z m-177 -79 c432 -425 467 -461 467
-483 0 -11 -3 -20 -8 -20 -19 0 -187 152 -390 354 -286 283 -352 353 -352 375
0 17 8 31 17 31 3 0 122 -116 266 -257z m-125 -145 c354 -350 464 -469 449
-484 -15 -15 -94 58 -416 380 -298 298 -343 347 -332 360 11 13 16 14 32 2 11
-7 131 -123 267 -258z m-53 -201 c333 -335 398 -408 376 -422 -13 -8 -503 467
-678 658 -34 37 -67 67 -73 67 -5 0 -10 6 -10 13 0 13 19 37 30 37 3 0 163
-159 355 -353z m-457 192 c15 -11 180 -171 366 -355 233 -231 336 -338 329
-345 -7 -7 -20 -6 -39 4 -16 8 -175 158 -353 334 -177 175 -328 320 -335 322
-6 2 0 -9 14 -25 l25 -28 -37 29 c-38 31 -46 53 -26 73 17 17 26 15 56 -9z
m176 -408 c268 -264 416 -431 362 -409 -4 2 -169 163 -366 359 -267 265 -356
359 -348 367 13 13 43 -13 352 -317z m-244 9 c140 -143 256 -263 259 -268 3
-5 14 -11 24 -15 9 -4 20 -15 24 -24 8 -20 53 -72 53 -61 0 4 23 -13 50 -39
51 -47 63 -79 34 -90 -10 -4 -54 34 -141 123 -527 539 -611 634 -564 634 5 0
122 -117 261 -260z m-120 -164 c295 -284 406 -408 394 -439 -13 -35 -33 -25
-73 37 -23 35 -76 96 -119 137 -42 41 -180 173 -305 294 -126 121 -233 223
-239 226 -18 11 0 41 21 37 11 -2 155 -133 321 -292z m-255 -248 c59 -52 35
-155 -46 -197 -42 -22 -49 -23 -78 -11 -39 16 -61 55 -61 109 0 57 17 88 59
105 53 22 96 20 126 -6z m-2613 -125 c17 -15 37 -43 44 -60 l14 -33 137 0
c106 0 134 -3 125 -12 -8 -8 -58 -13 -144 -15 l-131 -2 -42 -41 c-37 -36 -46
-40 -92 -40 -68 0 -98 15 -118 57 -23 48 -12 109 27 145 50 47 131 48 180 1z
m1188 -9 c21 -5 35 -15 41 -32 9 -24 12 -24 77 -18 37 4 123 9 192 12 74 4
141 12 165 21 22 9 56 16 74 17 31 1 39 -5 64 -42 16 -24 27 -46 24 -48 -11
-11 -83 -23 -105 -17 -12 3 -27 14 -33 25 -10 19 -18 20 -83 14 -39 -3 -107
-8 -151 -11 -147 -10 -186 -16 -235 -41 -61 -31 -84 -30 -109 2 -27 34 -27 78
-1 104 22 22 31 23 80 14z m-657 -65 c20 -5 37 -14 37 -19 0 -5 -11 -34 -24
-64 -27 -61 -56 -77 -97 -56 l-23 13 27 19 c19 14 27 29 27 49 0 35 -21 46
-57 30 -32 -15 -53 0 -33 24 15 18 86 20 143 4z m411 -18 c9 -13 -37 -20 -186
-27 -107 -6 -141 -4 -153 6 -10 8 -12 16 -6 19 16 10 339 12 345 2z m55 -146
c16 -8 31 -22 35 -30 26 -68 -37 -175 -101 -175 -40 0 -90 29 -103 59 -20 50
9 144 48 154 37 10 95 6 121 -8z"/>
<path d="M4041 9199 c-34 -34 -39 -60 -15 -83 18 -19 65 -21 82 -4 16 16 16
90 0 106 -19 19 -34 14 -67 -19z"/>
<path d="M5410 8739 c0 -11 5 -17 10 -14 6 3 10 13 10 21 0 8 -4 14 -10 14 -5
0 -10 -9 -10 -21z"/>
<path d="M6225 8750 c3 -5 8 -10 11 -10 2 0 4 5 4 10 0 6 -5 10 -11 10 -5 0
-7 -4 -4 -10z"/>
<path d="M5450 8740 c0 -5 5 -10 10 -10 6 0 10 5 10 10 0 6 -4 10 -10 10 -5 0
-10 -4 -10 -10z"/>
<path d="M6080 8620 c0 -5 5 -10 11 -10 5 0 7 5 4 10 -3 6 -8 10 -11 10 -2 0
-4 -4 -4 -10z"/>
<path d="M6110 8609 c0 -5 5 -7 10 -4 6 3 10 8 10 11 0 2 -4 4 -10 4 -5 0 -10
-5 -10 -11z"/>
<path d="M6180 9177 c-46 -21 -50 -40 -16 -62 44 -29 108 22 76 60 -15 18 -26
18 -60 2z"/>
<path d="M4860 8490 c-36 -5 -141 -19 -235 -31 -216 -26 -303 -46 -530 -119
-49 -16 -119 -37 -155 -48 -276 -82 -723 -342 -1025 -595 -33 -28 -121 -112
-195 -186 -180 -181 -328 -369 -456 -581 -31 -52 -72 -117 -90 -145 -105 -164
-235 -470 -318 -750 -28 -97 -85 -371 -96 -465 -22 -194 -29 -443 -20 -655 10
-212 13 -249 31 -340 47 -245 71 -355 93 -430 8 -27 26 -93 41 -145 15 -52 46
-137 70 -187 l44 -93 113 114 c73 74 130 122 160 136 58 27 78 48 57 61 -19
12 -63 11 -76 -2 -7 -7 -12 -3 -17 15 -13 53 30 85 96 72 49 -10 68 -33 68
-83 0 -60 -42 -105 -95 -101 -34 2 -44 -6 -160 -122 -69 -69 -125 -129 -125
-133 0 -15 112 -233 129 -250 4 -4 95 80 202 187 106 106 208 201 226 210 32
16 32 16 17 51 -32 77 -7 142 62 165 50 17 97 5 139 -34 30 -28 35 -40 35 -77
0 -51 -18 -83 -60 -104 -35 -18 -103 -20 -131 -2 -17 10 -22 9 -30 -6 -21 -36
-164 -195 -290 -322 -71 -71 -129 -134 -129 -140 0 -22 185 -308 219 -339 12
-11 21 -23 21 -29 0 -18 137 -172 266 -298 161 -158 359 -330 413 -359 14 -7
34 -21 45 -31 11 -11 22 -19 26 -19 3 0 71 63 150 139 134 128 144 141 133
160 -24 39 -11 89 31 123 44 36 108 12 140 -54 21 -41 20 -45 -10 -73 -20 -19
-38 -25 -73 -26 -44 0 -48 -3 -96 -61 -27 -33 -89 -97 -137 -142 -49 -44 -88
-83 -88 -86 0 -10 94 -77 154 -109 l60 -32 155 153 c85 84 184 181 219 215 55
53 63 65 55 85 -16 44 -9 104 17 142 24 34 72 66 102 66 24 0 96 -52 107 -77
16 -36 13 -104 -7 -143 -24 -48 -55 -62 -127 -57 l-61 4 -206 -202 -207 -201
80 -52 c44 -29 91 -55 104 -58 29 -7 36 -2 168 120 53 49 105 95 117 103 16
11 20 25 20 72 0 66 5 71 91 71 66 0 89 -25 89 -96 0 -49 -3 -56 -26 -66 -20
-9 -32 -9 -57 1 -68 28 -65 29 -192 -99 -66 -66 -121 -124 -123 -128 -1 -4 35
-23 80 -41 46 -18 99 -39 118 -46 45 -18 337 -98 460 -125 259 -58 684 -84
975 -59 190 16 582 95 755 153 146 49 415 165 490 211 19 12 58 34 85 49 319
176 597 389 801 613 49 54 91 100 94 103 44 42 300 363 300 375 0 3 5 11 10
18 53 62 176 285 253 457 193 431 290 813 327 1295 10 125 -1 402 -19 486 -5
24 -12 73 -15 109 -4 36 -11 83 -16 105 -5 22 -21 94 -36 160 -33 155 -47 199
-139 445 -81 216 -103 265 -205 450 -65 119 -241 395 -295 464 -139 177 -299
338 -519 524 -46 39 -456 317 -516 351 -65 35 -285 143 -342 166 -233 97 -567
190 -833 231 -131 21 -207 26 -415 29 -140 2 -284 0 -320 -5z m1550 -369 c0
-25 -151 -205 -238 -284 -23 -21 -45 -49 -48 -62 -3 -14 -9 -25 -13 -25 -3 0
-17 -18 -30 -39 -56 -91 -169 -40 -174 78 -2 68 44 98 107 70 35 -16 42 -39
11 -39 -42 0 -72 -69 -43 -98 17 -17 38 -15 38 3 0 36 43 96 112 156 40 35 98
87 128 115 30 28 73 67 95 85 22 19 42 37 43 42 5 10 12 9 12 -2z m311 -179
c-5 -10 -58 -70 -118 -133 -191 -201 -183 -190 -183 -259 0 -130 -69 -192
-160 -145 -41 21 -50 43 -50 123 0 61 3 71 26 93 21 20 36 24 85 24 67 0 38
-21 269 197 121 115 151 137 131 100z m212 -175 c-10 -12 -44 -54 -75 -92 -31
-39 -59 -82 -63 -97 -4 -15 -22 -44 -41 -66 -19 -22 -34 -45 -34 -50 0 -18
-51 -122 -60 -122 -5 0 -21 10 -35 23 -25 21 -26 27 -20 71 4 27 15 55 24 63
9 7 81 77 161 153 134 129 188 173 143 117z m-833 -143 c0 -18 -69 -94 -85
-94 -13 0 -43 -15 -120 -60 -27 -17 -60 -34 -72 -40 -47 -20 -86 -172 -48
-186 8 -4 15 -12 15 -20 0 -8 9 -14 20 -14 14 0 20 -7 20 -22 0 -16 3 -19 8
-10 5 7 19 11 32 9 26 -4 110 11 125 23 17 13 106 23 172 21 33 -2 71 3 83 9
20 11 154 33 268 44 24 3 53 11 65 19 24 16 127 29 127 16 0 -4 16 -11 35 -15
38 -7 75 -34 75 -54 0 -9 5 -8 18 3 21 20 37 22 26 5 -5 -8 -2 -9 10 -5 19 7
47 -16 213 -178 50 -49 97 -94 103 -100 27 -25 110 -119 110 -126 0 -3 -6 -11
-13 -17 -9 -8 -22 1 -52 36 -37 43 -302 302 -337 328 -36 28 -53 24 -108 -21
-86 -70 -120 -90 -190 -109 -93 -26 -142 -44 -255 -91 -121 -51 -150 -61 -141
-47 3 5 0 15 -8 21 -25 21 -75 -13 -76 -52 0 -23 -29 -16 -140 35 -192 89
-460 163 -680 188 -120 14 -437 11 -539 -5 -42 -7 -79 -11 -83 -9 -4 3 -9 0
-12 -5 -3 -5 -23 -12 -43 -16 -21 -3 -68 -15 -105 -27 -105 -31 -104 -15 1 20
52 17 98 29 102 26 5 -3 19 1 31 8 13 7 32 13 43 15 94 10 165 22 181 31 12 6
45 9 80 5 63 -6 66 -3 19 21 -25 13 -26 16 -10 16 12 0 26 5 33 12 8 8 15 8
26 -2 22 -17 46 -6 39 19 -7 28 9 26 35 -4 12 -14 27 -25 34 -25 7 0 5 5 -5
13 -18 13 -18 49 0 82 10 16 13 17 28 5 10 -9 14 -22 10 -37 -4 -17 -1 -23 10
-23 22 0 10 60 -17 83 -23 19 -20 31 6 21 9 -3 16 -12 16 -20 0 -8 5 -14 10
-14 6 0 10 16 10 35 0 19 5 35 11 35 21 0 50 42 43 64 -3 14 -2 17 4 8 19 -27
82 -1 82 33 0 14 6 16 26 11 21 -6 25 -4 21 8 -4 9 -2 16 3 16 6 0 10 7 10 16
0 15 2 15 23 0 50 -37 99 -55 126 -45 14 6 48 12 76 15 27 3 86 21 130 41 77
34 322 103 338 96 4 -2 7 -11 7 -19z m-740 -29 c0 -16 -6 -25 -15 -25 -18 0
-19 4 -3 30 16 26 18 25 18 -5z m-270 -311 c0 -35 -17 -30 -18 6 0 17 4 28 9
25 5 -4 9 -17 9 -31z m1798 -115 c49 -38 362 -350 362 -360 0 -6 -117 -128
-260 -272 -143 -144 -260 -263 -260 -264 0 -2 33 -47 74 -100 69 -92 176 -276
176 -305 0 -12 39 -69 40 -58 0 17 -98 226 -132 281 -23 36 -94 141 -112 164
-12 16 15 45 297 327 125 126 227 233 227 238 0 6 5 10 10 10 11 0 14 -53 3
-64 -4 -3 -8 -14 -9 -24 -4 -21 -12 -85 -13 -94 -1 -3 -14 -4 -30 -2 -16 3
-32 0 -35 -5 -4 -6 -13 -8 -21 -5 -11 5 -13 -5 -10 -47 2 -29 0 -58 -6 -65 -7
-8 -7 -14 1 -19 5 -3 10 -21 10 -39 0 -36 15 -56 41 -56 10 0 25 -7 34 -16 8
-9 24 -14 35 -11 11 3 21 -1 25 -10 5 -14 8 -14 24 1 15 14 24 15 40 6 12 -6
21 -13 21 -15 0 -7 -168 -115 -195 -125 -14 -5 -25 -14 -25 -19 0 -6 -13 -18
-30 -28 -16 -9 -30 -23 -30 -30 0 -8 -7 -16 -15 -19 -8 -4 -15 -15 -15 -25 0
-11 -7 -31 -16 -44 -8 -13 -14 -34 -12 -46 4 -29 73 -67 124 -70 41 -2 131 16
149 30 21 16 139 43 143 33 2 -6 10 -8 18 -5 16 6 96 -73 120 -119 8 -15 19
-28 24 -28 6 0 10 -7 10 -15 0 -8 5 -15 10 -15 6 0 10 -7 10 -16 0 -9 14 -43
32 -75 24 -45 28 -63 20 -71 -7 -7 -12 -26 -12 -43 0 -17 -9 -48 -20 -70 -12
-24 -20 -59 -20 -89 0 -27 -7 -78 -16 -113 -12 -50 -13 -70 -5 -91 16 -38 19
-224 4 -229 -7 -3 -9 -11 -6 -20 3 -8 0 -19 -8 -24 -10 -6 -14 -31 -14 -94 0
-47 -3 -85 -7 -85 -5 0 -8 5 -8 10 0 6 -4 10 -10 10 -5 0 -10 -9 -10 -20 0
-11 5 -20 10 -20 12 0 13 -47 1 -54 -5 -3 -12 -33 -16 -66 -6 -50 -10 -60 -26
-60 -20 0 -26 -15 -9 -25 12 -8 13 -52 1 -59 -5 -3 -12 -23 -16 -43 -4 -21
-11 -43 -16 -49 -5 -6 -10 -19 -12 -30 -1 -11 -13 -31 -25 -44 -12 -13 -25
-33 -28 -44 -4 -12 -15 -27 -26 -34 -10 -7 -16 -18 -12 -23 3 -5 -2 -23 -10
-40 -9 -17 -13 -35 -10 -40 3 -5 -2 -9 -10 -9 -8 0 -20 -8 -25 -17 -9 -15 -12
-16 -20 -4 -7 11 -16 10 -54 -8 -58 -28 -116 -21 -157 21 -16 15 -34 27 -41
26 -6 -2 -13 4 -14 12 -2 8 -6 23 -10 33 -4 10 -3 17 4 17 8 0 9 6 2 19 -6 10
-7 22 -3 26 4 5 1 5 -5 1 -7 -4 -13 -14 -13 -23 0 -8 -9 -26 -20 -40 -11 -15
-18 -29 -14 -32 3 -3 12 3 20 13 13 19 14 19 14 -7 0 -22 -4 -27 -26 -27 -25
0 -26 -2 -20 -40 4 -25 2 -40 -4 -40 -5 0 -10 7 -10 15 0 18 -17 20 -23 3 -2
-7 -7 -10 -11 -6 -4 3 6 32 23 65 52 100 139 380 161 520 22 138 28 423 10
498 -5 22 -10 55 -10 74 0 33 -13 83 -31 126 l-9 20 5 -20 c2 -11 7 -42 10
-70 3 -27 10 -83 17 -123 14 -92 5 -372 -17 -509 -22 -145 -108 -389 -190
-543 -224 -419 -525 -719 -906 -904 -124 -59 -151 -69 -309 -114 -214 -61
-334 -77 -565 -77 -283 1 -409 20 -710 109 -110 33 -282 117 -436 213 -64 40
-119 73 -122 73 -4 0 -7 -6 -7 -13 0 -7 -96 -109 -214 -226 -151 -150 -220
-212 -233 -209 -12 3 -17 11 -16 26 2 12 -1 22 -6 22 -4 0 -50 43 -102 96 -52
53 -115 117 -141 142 -27 25 -48 49 -48 54 0 20 78 109 228 263 86 88 168 168
181 178 l25 16 -42 43 c-116 117 -261 409 -337 678 -14 52 -30 109 -35 125
-57 197 -59 600 -3 875 30 150 99 338 184 500 105 201 330 470 517 619 311
246 572 371 914 437 97 19 530 23 613 6 28 -6 95 -20 150 -31 99 -21 196 -47
225 -62 8 -4 44 -17 80 -30 166 -56 433 -208 507 -287 12 -13 26 -22 31 -20 4
1 53 53 108 113 54 61 154 164 222 230 92 91 124 128 128 153 8 37 25 41 62
11z m-2468 -133 c0 -3 -4 -8 -10 -11 -5 -3 -10 -1 -10 4 0 6 5 11 10 11 6 0
10 -2 10 -4z m-50 -26 c-8 -5 -22 -10 -30 -10 -13 0 -13 1 0 10 8 5 22 10 30
10 13 0 13 -1 0 -10z m3540 -99 c-5 -11 -13 -21 -17 -23 -5 -1 -48 -48 -98
-103 -49 -54 -111 -121 -137 -149 -26 -27 -52 -63 -58 -80 -22 -58 -39 -81
-62 -84 -35 -4 -78 46 -85 98 -7 50 6 63 55 54 29 -6 41 2 147 91 63 53 143
123 178 156 63 59 97 77 77 40z m71 -298 c-6 -10 -60 -72 -122 -138 -162 -174
-164 -177 -165 -249 -1 -64 -18 -108 -53 -140 -19 -17 -25 -18 -60 -6 -22 7
-56 26 -76 43 l-37 30 4 78 c3 65 7 81 27 103 29 30 79 35 125 11 30 -16 30
-15 85 38 114 109 269 247 278 247 2 0 -1 -8 -6 -17z m108 -300 c-18 -21 -51
-57 -72 -80 -60 -65 -80 -101 -73 -138 7 -37 -13 -71 -37 -62 -25 10 -50 54
-43 79 11 44 237 260 254 243 3 -2 -10 -21 -29 -42z m-4770 -242 c-31 -41 -35
-32 -7 14 12 21 24 33 26 27 2 -6 -7 -25 -19 -41z m-63 -122 c-58 -126 -84
-200 -120 -345 -37 -150 -42 -184 -56 -405 -21 -319 50 -694 186 -986 20 -43
40 -88 44 -100 5 -12 34 -61 65 -108 56 -88 70 -124 22 -62 -30 39 -103 163
-134 227 -134 277 -224 692 -208 965 16 282 41 442 95 604 30 89 90 225 118
269 28 44 23 14 -12 -59z m3803 -1800 c-16 -10 -23 -4 -14 10 3 6 11 8 17 5 6
-4 5 -9 -3 -15z m41 11 c0 -5 -4 -10 -10 -10 -5 0 -10 5 -10 10 0 6 5 10 10
10 6 0 10 -4 10 -10z m211 -50 c11 0 11 -11 -1 -30 -8 -13 -11 -12 -24 5 -20
26 -20 39 0 31 9 -3 20 -6 25 -6z m-355 -45 c-9 -14 -14 -29 -11 -34 2 -5 -2
-12 -11 -15 -13 -5 -15 -1 -9 21 8 32 23 53 37 53 6 0 3 -11 -6 -25z m281 -27
c-3 -8 -6 -5 -6 6 -1 11 2 17 5 13 3 -3 4 -12 1 -19z m68 -38 c3 -5 -3 -10
-15 -10 -12 0 -18 5 -15 10 3 6 10 10 15 10 5 0 12 -4 15 -10z m-385 -10 c0
-5 -7 -10 -15 -10 -8 0 -15 5 -15 10 0 6 7 10 15 10 8 0 15 -4 15 -10z m-59
-72 c-38 -36 -41 -23 -4 21 16 19 29 28 31 21 3 -7 -10 -26 -27 -42z m-79
-110 c-7 -7 -12 -8 -12 -2 0 14 12 26 19 19 2 -3 -1 -11 -7 -17z m-4058 -251
c27 -19 33 -99 11 -133 -16 -24 -21 -26 -72 -22 l-55 5 -124 -126 c-87 -89
-126 -123 -134 -115 -7 7 28 48 120 138 l130 128 0 51 c0 63 19 87 70 87 20 0
44 -6 54 -13z m536 -11 c0 -2 -8 -10 -17 -17 -16 -13 -17 -12 -4 4 13 16 21
21 21 13z m-134 -150 c-14 -19 -26 -40 -26 -47 0 -7 53 -66 118 -132 157 -160
154 -157 141 -157 -6 0 -71 61 -145 135 -74 74 -139 135 -144 135 -22 0 -7 29
32 63 52 46 58 46 24 3z m832 -5 c72 -49 143 -92 195 -116 32 -15 60 -32 63
-37 8 -13 -55 15 -104 46 -23 14 -44 26 -47 26 -7 0 -145 92 -145 96 0 8 12 3
38 -15z m392 -211 c0 -5 -2 -10 -4 -10 -3 0 -8 5 -11 10 -3 6 -1 10 4 10 6 0
11 -4 11 -10z"/>
<path d="M6267 7552 c-21 -23 -22 -52 -3 -78 18 -23 44 -12 63 27 10 20 9 27
-9 46 -26 28 -30 28 -51 5z"/>
<path d="M5340 7430 c0 -5 5 -10 11 -10 5 0 7 5 4 10 -3 6 -8 10 -11 10 -2 0
-4 -4 -4 -10z"/>
<path d="M4881 6535 c-274 -52 -575 -192 -749 -349 -377 -341 -541 -766 -487
-1261 28 -251 120 -503 243 -665 19 -25 38 -46 42 -48 4 -2 221 212 481 475
986 994 1188 1198 1324 1338 77 79 161 162 186 183 26 22 44 44 40 50 -8 14
-149 96 -241 141 -97 48 -276 107 -365 121 -38 6 -83 14 -100 17 -72 12 -303
11 -374 -2z m476 -41 c-3 -3 -12 -4 -19 -1 -8 3 -5 6 6 6 11 1 17 -2 13 -5z
m63 -14 c13 -8 13 -10 -2 -10 -9 0 -20 5 -23 10 -8 13 5 13 25 0z m124 -40
c16 -6 27 -13 24 -15 -2 -3 -29 4 -59 15 -32 12 -42 19 -24 16 17 -3 43 -9 59
-16z"/>
<path d="M6300 5893 c0 -6 -16 -31 -36 -55 -63 -75 -530 -551 -1253 -1275
-386 -386 -701 -706 -701 -711 0 -22 181 -128 290 -170 76 -30 281 -79 365
-87 39 -4 88 -9 110 -11 92 -10 447 47 530 85 17 8 68 27 150 57 11 4 22 8 25
8 3 1 25 15 50 32 25 16 66 40 92 53 26 13 60 36 75 51 15 15 33 25 40 23 25
-10 224 205 307 331 192 289 278 599 246 889 -28 265 -58 373 -161 582 -63
127 -128 228 -129 198z m216 -509 c5 -43 -7 -24 -20 31 -5 22 -4 27 4 19 6 -6
13 -28 16 -50z m27 -134 c4 -33 3 -49 -2 -40 -5 8 -12 42 -15 75 -4 37 -3 52
2 40 5 -11 12 -45 15 -75z m22 -220 c6 -93 -9 -233 -34 -313 -6 -18 -13 -44
-16 -59 -3 -16 -9 -28 -14 -28 -5 0 -3 21 4 48 32 118 40 193 39 352 -1 172 9
172 21 0z m-340 -928 l-28 -27 24 31 c13 17 26 30 28 27 3 -2 -8 -16 -24 -31z"/>
<path d="M7020 5779 c0 -9 7 -22 15 -29 19 -16 19 0 0 26 -12 16 -14 16 -15 3z"/>
<path d="M7051 5704 c0 -11 3 -14 6 -6 3 7 2 16 -1 19 -3 4 -6 -2 -5 -13z"/>
<path d="M7071 5649 c0 -9 8 -51 19 -94 11 -43 20 -86 20 -97 0 -10 5 -18 10
-18 14 0 12 20 -5 70 -8 23 -15 55 -15 69 0 15 -4 31 -9 37 -5 5 -11 18 -14
29 -3 13 -5 15 -6 4z"/>
<path d="M7140 4409 c0 -14 29 -43 36 -36 8 7 -15 47 -26 47 -6 0 -10 -5 -10
-11z"/>
<path d="M7110 4349 c0 -5 5 -7 10 -4 6 3 10 8 10 11 0 2 -4 4 -10 4 -5 0 -10
-5 -10 -11z"/>
<path d="M7110 4250 c0 -5 5 -10 10 -10 6 0 10 5 10 10 0 6 -4 10 -10 10 -5 0
-10 -4 -10 -10z"/>
<path d="M7390 4234 c0 -8 5 -12 10 -9 6 4 8 11 5 16 -9 14 -15 11 -15 -7z"/>
<path d="M7197 4213 c-4 -3 -7 -12 -7 -20 0 -16 34 -17 63 -1 21 11 21 11 2
19 -26 10 -50 11 -58 2z"/>
<path d="M7470 6569 c0 -5 5 -7 10 -4 6 3 10 8 10 11 0 2 -4 4 -10 4 -5 0 -10
-5 -10 -11z"/>
<path d="M7553 6244 c-8 -20 13 -64 31 -64 18 0 28 38 15 62 -12 22 -37 24
-46 2z"/>
<path d="M2646 3498 c-16 -32 -13 -68 5 -68 26 0 49 22 49 48 0 27 -15 52 -31
52 -4 0 -15 -14 -23 -32z"/>
<path d="M1905 6454 c-22 -48 -13 -54 14 -9 24 40 25 45 12 45 -5 0 -16 -16
-26 -36z"/>
<path d="M1842 6448 c-19 -19 -14 -29 8 -16 20 13 27 28 12 28 -4 0 -13 -5
-20 -12z"/>
<path d="M1636 5873 c-6 -14 -5 -15 5 -6 7 7 10 15 7 18 -3 3 -9 -2 -12 -12z"/>
<path d="M1696 5672 c-4 -18 -5 -36 -2 -39 11 -12 17 5 14 39 l-3 33 -9 -33z"/>
<path d="M1682 5490 c0 -14 2 -19 5 -12 2 6 2 18 0 25 -3 6 -5 1 -5 -13z"/>
<path d="M1669 5438 c-1 -13 -3 -36 -5 -53 -11 -96 -18 -344 -13 -430 6 -115
9 -84 11 140 1 88 5 171 9 185 11 35 16 180 7 180 -5 0 -9 -10 -9 -22z"/>
<path d="M1650 4820 c0 -5 5 -10 11 -10 5 0 7 5 4 10 -3 6 -8 10 -11 10 -2 0
-4 -4 -4 -10z"/>
<path d="M1662 4770 c0 -14 2 -19 5 -12 2 6 2 18 0 25 -3 6 -5 1 -5 -13z"/>
<path d="M1663 4628 c-1 -28 3 -58 9 -65 6 -7 8 -16 5 -20 -4 -3 -2 -14 4 -24
8 -15 6 -19 -6 -19 -9 0 -14 -4 -11 -9 4 -5 2 -20 -2 -32 -9 -22 -9 -23 -19
-4 -6 11 -16 45 -24 75 -17 71 -16 68 -18 86 0 8 -5 12 -11 9 -10 -6 -3 -62
10 -80 10 -15 28 -92 36 -155 4 -30 10 -64 15 -75 6 -16 8 -14 8 13 1 17 4 32
9 32 13 -1 43 -27 41 -36 -1 -5 7 -29 19 -54 12 -25 22 -52 22 -60 0 -8 11
-44 24 -80 24 -65 59 -202 59 -230 0 -8 4 -18 9 -21 5 -3 10 -18 12 -32 1 -14
8 -32 15 -41 9 -11 9 -16 0 -22 -9 -5 -8 -10 3 -18 22 -16 69 -109 73 -145 4
-28 2 -30 -15 -21 -23 12 -24 15 -10 41 9 15 7 19 -5 19 -9 0 -18 7 -21 15 -4
8 -12 15 -20 15 -11 0 -11 -6 0 -38 15 -43 56 -113 56 -96 0 7 8 14 18 16 21
6 42 -20 42 -51 0 -11 6 -24 13 -28 6 -4 25 -34 40 -65 16 -32 32 -58 36 -58
4 0 20 -24 35 -52 58 -107 164 -257 250 -354 49 -56 60 -50 14 8 -51 63 -201
286 -238 354 -18 32 -43 73 -55 89 -12 17 -39 62 -60 100 -20 39 -41 75 -46
80 -4 6 -11 31 -15 55 -4 25 -19 70 -34 100 -25 49 -51 116 -105 275 -9 28
-19 66 -21 85 -3 19 -16 66 -29 105 -32 93 -72 265 -80 340 -12 130 -28 166
-32 73z"/>
<path d="M8720 4340 c0 -5 5 -10 10 -10 6 0 10 5 10 10 0 6 -4 10 -10 10 -5 0
-10 -4 -10 -10z"/>
<path d="M8680 4236 c0 -13 -3 -33 -6 -43 -5 -16 -4 -16 10 1 18 22 21 52 6
61 -6 3 -10 -5 -10 -19z"/>
<path d="M1672 4170 c0 -14 2 -19 5 -12 2 6 2 18 0 25 -3 6 -5 1 -5 -13z"/>
<path d="M8700 4155 c0 -8 5 -15 10 -15 6 0 10 7 10 15 0 8 -4 15 -10 15 -5 0
-10 -7 -10 -15z"/>
<path d="M1686 4120 c3 -14 11 -32 16 -40 6 -10 7 -7 2 10 -3 14 -11 32 -16
40 -6 10 -7 7 -2 -10z"/>
<path d="M2688 3969 c-34 -25 -36 -62 -6 -83 32 -23 61 -20 87 8 16 17 22 33
19 57 -3 31 -6 34 -38 36 -23 2 -44 -4 -62 -18z"/>
<path d="M1790 3891 c0 -6 4 -13 10 -16 6 -3 7 1 4 9 -7 18 -14 21 -14 7z"/>
<path d="M8535 3761 c-3 -5 -1 -12 5 -16 5 -3 10 1 10 9 0 18 -6 21 -15 7z"/>
<path d="M1952 3485 c12 -25 26 -45 30 -45 12 0 10 28 -3 35 -5 4 -14 18 -19
31 -5 13 -14 24 -20 24 -5 0 0 -20 12 -45z"/>
<path d="M8386 3482 c-3 -5 3 -17 13 -26 13 -12 21 -14 26 -6 4 6 5 12 4 13
-2 2 -11 8 -21 15 -9 7 -19 9 -22 4z"/>
<path d="M8610 3255 c16 -21 30 -34 80 -80 19 -18 27 -22 19 -10 -7 11 -35 40
-63 65 -28 25 -44 36 -36 25z"/>
<path d="M2090 3243 c1 -13 40 -56 46 -50 7 7 -25 57 -37 57 -5 0 -9 -3 -9 -7z"/>
<path d="M8820 3140 c0 -5 5 -10 11 -10 5 0 7 5 4 10 -3 6 -8 10 -11 10 -2 0
-4 -4 -4 -10z"/>
<path d="M8860 3122 c0 -12 19 -26 26 -19 2 2 -2 10 -11 17 -9 8 -15 8 -15 2z"/>
<path d="M2420 2902 c0 -6 18 -32 40 -57 22 -25 40 -42 40 -38 0 5 -18 30 -40
57 -22 26 -40 43 -40 38z"/>
<path d="M3978 2703 c-40 -46 -29 -123 17 -123 35 0 59 40 50 82 -13 58 -38
73 -67 41z"/>
<path d="M2940 2381 c0 -8 75 -71 84 -71 18 0 0 23 -39 49 -25 17 -45 27 -45
22z"/>
<path d="M3070 2280 c19 -16 39 -30 43 -30 5 0 27 -15 50 -33 23 -18 68 -50
100 -70 44 -29 56 -33 48 -18 -6 11 -21 23 -33 27 -12 3 -28 13 -36 21 -19 19
-191 133 -200 133 -4 0 9 -14 28 -30z"/>
<path d="M4040 2293 c1 -19 41 -55 55 -49 18 7 19 28 3 44 -13 13 -58 17 -58
5z"/>
<path d="M3410 2061 c0 -9 30 -24 36 -18 2 1 -6 8 -16 15 -11 7 -20 8 -20 3z"/>
<path d="M3568 1978 c5 -5 16 -8 23 -6 8 3 3 7 -10 11 -17 4 -21 3 -13 -5z"/>
<path d="M3645 1940 c3 -5 11 -10 16 -10 6 0 7 5 4 10 -3 6 -11 10 -16 10 -6
0 -7 -4 -4 -10z"/>
<path d="M3738 1898 c5 -5 16 -8 23 -6 8 3 3 7 -10 11 -17 4 -21 3 -13 -5z"/>
<path d="M3905 1836 c17 -7 46 -17 65 -20 l35 -7 -31 15 c-17 7 -46 16 -65 20
l-34 6 30 -14z"/>
<path d="M4014 1801 c7 -11 95 -36 102 -29 3 3 -16 13 -42 22 -54 18 -68 20
-60 7z"/>
<path d="M4150 1756 c57 -29 300 -82 278 -61 -6 6 -276 75 -292 75 -6 -1 0 -7
14 -14z"/>
<path d="M4900 1640 c0 -5 7 -10 16 -10 8 0 12 5 9 10 -3 6 -10 10 -16 10 -5
0 -9 -4 -9 -10z"/>
<path d="M4950 1640 c0 -5 7 -10 16 -10 8 0 12 5 9 10 -3 6 -10 10 -16 10 -5
0 -9 -4 -9 -10z"/>
<path d="M5275 1640 c3 -5 10 -10 16 -10 5 0 9 5 9 10 0 6 -7 10 -16 10 -8 0
-12 -4 -9 -10z"/>
<path d="M5013 1633 c9 -2 23 -2 30 0 6 3 -1 5 -18 5 -16 0 -22 -2 -12 -5z"/>
<path d="M5093 1633 c9 -2 25 -2 35 0 9 3 1 5 -18 5 -19 0 -27 -2 -17 -5z"/>
<path d="M3532 9038 c-32 -36 -43 -72 -27 -94 13 -18 15 -18 42 -3 15 9 37 33
48 52 16 29 17 38 6 51 -19 22 -44 20 -69 -6z"/>
<path d="M1220 6777 c-20 -10 -26 -21 -28 -58 -4 -62 13 -76 64 -54 44 18 54
30 54 66 0 43 -47 67 -90 46z"/>
<path d="M9130 6186 c0 -19 63 -72 68 -57 7 20 -6 40 -37 56 -26 13 -31 13
-31 1z"/>
<path d="M9235 5650 c-6 -10 -34 -160 -41 -220 l-4 -35 15 30 c8 17 14 42 15
58 0 15 4 35 9 45 13 26 31 86 31 105 0 19 -16 31 -25 17z"/>
<path d="M9191 5364 c0 -11 3 -14 6 -6 3 7 2 16 -1 19 -3 4 -6 -2 -5 -13z"/>
<path d="M9270 5100 c0 -11 79 -54 87 -47 6 7 -61 57 -75 57 -7 0 -12 -4 -12
-10z"/>
<path d="M9211 4764 c-19 -19 -39 -34 -46 -34 -8 0 -13 -16 -13 -42 0 -24 -4
-97 -10 -163 -11 -124 -15 -312 -7 -304 2 3 7 34 9 69 16 199 40 388 52 413 7
15 22 43 34 62 27 43 24 43 -19 -1z"/>
<path d="M9164 4065 c-9 -22 0 -38 30 -55 31 -16 59 -5 64 25 4 20 -16 37 -36
30 -7 -3 -22 0 -33 5 -15 8 -21 7 -25 -5z"/>
<path d="M1130 4110 c-27 -27 -25 -56 5 -85 29 -30 45 -31 73 -5 30 28 28 64
-4 89 -33 26 -49 26 -74 1z"/>
<path d="M9055 3710 c3 -5 10 -10 16 -10 5 0 9 5 9 10 0 6 -7 10 -16 10 -8 0
-12 -4 -9 -10z"/>
<path d="M8640 3730 c0 -5 9 -10 21 -10 11 0 17 5 14 10 -3 6 -13 10 -21 10
-8 0 -14 -4 -14 -10z"/>
<path d="M8590 3690 c0 -11 5 -20 10 -20 6 0 10 5 10 10 0 6 7 10 16 10 8 0
12 5 9 10 -12 19 -45 11 -45 -10z"/>
<path d="M8564 3644 c3 -9 6 -18 6 -20 0 -2 4 -4 8 -4 4 0 8 9 9 20 1 12 -4
20 -14 20 -10 0 -13 -6 -9 -16z"/>
<path d="M9012 3538 c-19 -30 -20 -34 -5 -50 21 -24 37 -23 69 6 27 23 28 24
11 50 -23 35 -51 33 -75 -6z"/>
<path d="M8285 2670 c29 -36 167 -171 171 -167 2 1 -40 46 -93 98 -54 51 -88
83 -78 69z"/>
<path d="M6732 1264 c-25 -17 -28 -41 -10 -79 10 -23 16 -26 42 -21 35 7 66
33 66 55 0 27 -30 61 -53 61 -13 0 -33 -7 -45 -16z"/>
<path d="M4092 1137 c-28 -29 -28 -51 0 -77 42 -39 128 -16 128 36 0 59 -85
87 -128 41z"/>
<path d="M5367 1143 c-12 -11 -8 -50 7 -62 17 -14 66 2 66 23 0 7 -11 21 -25
30 -26 17 -38 20 -48 9z"/>
<path d="M5945 1130 c-3 -5 1 -10 9 -10 9 0 16 5 16 10 0 6 -4 10 -9 10 -6 0
-13 -4 -16 -10z"/>
<path d="M5101 888 c-9 -23 1 -61 21 -85 27 -33 78 4 78 57 0 35 -17 50 -57
50 -26 0 -36 -5 -42 -22z"/>
<path d="M2347 8996 c-4 -10 -1 -13 9 -9 15 6 19 23 5 23 -5 0 -11 -7 -14 -14z"/>
<path d="M2273 8946 c-15 -13 -25 -27 -22 -30 3 -3 18 8 34 24 35 36 27 40
-12 6z"/>
<path d="M2186 8872 l-19 -27 26 24 c28 26 32 31 20 31 -5 0 -17 -13 -27 -28z"/>
<path d="M2109 8813 c-13 -16 -12 -17 4 -4 9 7 17 15 17 17 0 8 -8 3 -21 -13z"/>
<path d="M1691 8449 c-39 -40 -70 -74 -67 -76 4 -4 79 69 130 126 41 46 6 17
-63 -50z"/>
<path d="M1296 8241 c-4 -7 -5 -15 -2 -18 9 -9 19 4 14 18 -4 11 -6 11 -12 0z"/>
<path d="M1265 8200 c3 -5 8 -10 11 -10 2 0 4 5 4 10 0 6 -5 10 -11 10 -5 0
-7 -4 -4 -10z"/>
<path d="M1222 8180 c-7 -11 -8 -20 -3 -20 9 0 24 30 18 36 -1 2 -8 -6 -15
-16z"/>
<path d="M1250 8161 c0 -6 4 -13 10 -16 6 -3 7 1 4 9 -7 18 -14 21 -14 7z"/>
<path d="M1332 8130 c-10 -17 -10 -20 6 -20 11 0 18 8 19 20 1 11 -1 20 -5 20
-4 0 -13 -9 -20 -20z"/>
<path d="M1176 8104 c-7 -18 0 -34 16 -34 7 0 7 4 -1 13 -8 10 -7 17 1 25 8 8
9 12 1 12 -6 0 -14 -7 -17 -16z"/>
<path d="M1321 8081 c-7 -5 -9 -11 -4 -14 6 -4 19 0 29 8 15 11 16 14 4 15 -8
0 -21 -4 -29 -9z"/>
<path d="M1150 8062 c0 -5 9 -17 20 -27 22 -20 26 -14 10 16 -11 19 -30 26
-30 11z"/>
<path d="M1124 7995 c-1 -49 2 -54 21 -28 13 17 14 17 32 0 43 -38 43 -14 1
28 -25 25 -48 45 -49 45 -2 0 -4 -20 -5 -45z"/>
<path d="M1216 7986 c3 -9 11 -16 16 -16 13 0 5 23 -10 28 -7 2 -10 -2 -6 -12z"/>
<path d="M1050 7910 c0 -5 5 -10 11 -10 5 0 7 5 4 10 -3 6 -8 10 -11 10 -2 0
-4 -4 -4 -10z"/>
<path d="M1040 7871 c0 -5 6 -14 14 -20 12 -10 13 -8 9 8 -5 21 -23 30 -23 12z"/>
<path d="M1155 7858 c-32 -37 -46 -66 -35 -73 6 -3 10 0 10 8 0 8 11 26 25 42
15 15 25 31 23 37 -2 5 -12 -1 -23 -14z"/>
<path d="M1085 7827 c-4 -10 -5 -21 -1 -24 10 -10 18 4 13 24 -4 17 -4 17 -12
0z"/>
<path d="M1024 7815 c-4 -10 -14 -15 -26 -12 -11 3 -22 -1 -25 -9 -8 -21 2
-27 31 -20 29 7 52 41 36 51 -6 3 -13 -1 -16 -10z"/>
<path d="M1055 7792 c-3 -12 -15 -24 -26 -27 -24 -8 -25 -25 -1 -25 23 1 58
48 44 62 -7 7 -12 3 -17 -10z"/>
<path d="M946 7772 c-3 -6 -1 -14 5 -17 15 -10 25 3 12 16 -7 7 -13 7 -17 1z"/>
<path d="M1083 7763 c-4 -10 -12 -22 -20 -26 -15 -9 -18 -37 -4 -37 12 0 51
54 51 69 0 18 -20 13 -27 -6z"/>
<path d="M958 7743 c-25 -6 -10 -33 18 -33 19 0 24 -5 24 -27 0 -25 1 -26 17
-11 15 16 14 19 -13 46 -16 16 -37 27 -46 25z"/>
<path d="M942 7688 c-15 -15 -16 -38 -2 -38 12 0 23 25 18 40 -2 7 -7 7 -16
-2z"/>
<path d="M885 7669 c-4 -6 -5 -13 -2 -16 7 -7 27 6 27 18 0 12 -17 12 -25 -2z"/>
<path d="M913 7614 c-3 -8 -2 -22 2 -31 6 -16 8 -15 16 6 7 19 12 22 21 13 7
-7 18 -12 26 -12 10 0 9 5 -4 18 -21 21 -54 24 -61 6z"/>
<path d="M866 7591 c-4 -7 -5 -15 -2 -18 9 -9 19 4 14 18 -4 11 -6 11 -12 0z"/>
<path d="M893 7553 c-14 -5 -18 -33 -5 -33 10 0 32 22 32 32 0 9 -8 9 -27 1z"/>
<path d="M810 7524 c0 -12 4 -12 20 -4 11 6 20 12 20 13 0 2 -9 3 -20 4 -12 1
-20 -4 -20 -13z"/>
<path d="M800 7491 c0 -5 7 -14 15 -21 12 -10 15 -10 15 3 0 8 -7 17 -15 21
-8 3 -15 2 -15 -3z"/>
<path d="M3278 563 c7 -3 16 -2 19 1 4 3 -2 6 -13 5 -11 0 -14 -3 -6 -6z"/>
<path d="M3600 560 c0 -5 10 -10 23 -10 18 0 19 2 7 10 -19 13 -30 13 -30 0z"/>
<path d="M1000 8078 c-12 -22 -12 -22 6 -6 10 10 15 20 12 24 -4 3 -12 -5 -18
-18z"/>
<path d="M712 7630 c-12 -24 -20 -45 -18 -47 6 -7 47 69 43 80 -2 6 -13 -9
-25 -33z"/>
<path d="M660 7539 c0 -5 5 -7 10 -4 6 3 10 8 10 11 0 2 -4 4 -10 4 -5 0 -10
-5 -10 -11z"/>
<path d="M637 7493 c-4 -3 -7 -11 -7 -17 0 -6 5 -5 12 2 6 6 9 14 7 17 -3 3
-9 2 -12 -2z"/>
<path d="M605 7440 c-3 -5 -1 -10 4 -10 6 0 11 5 11 10 0 6 -2 10 -4 10 -3 0
-8 -4 -11 -10z"/>
<path d="M540 7316 c-6 -9 -10 -21 -8 -28 3 -8 9 -4 17 10 15 28 9 39 -9 18z"/>
</g>
</svg>
